<?xml version="1.0" encoding="utf-8"?>
<!-- Generator: Adobe Illustrator 18.0.0, SVG Export Plug-In . SVG Version: 6.00 Build 0)  -->
<!DOCTYPE svg PUBLIC "-//W3C//DTD SVG 1.0//EN" "http://www.w3.org/TR/2001/REC-SVG-20010904/DTD/svg10.dtd">
<svg version="1.0" id="Layer_1" xmlns="http://www.w3.org/2000/svg" xmlns:xlink="http://www.w3.org/1999/xlink" x="0px" y="0px"
	 viewBox="0 0 201.2 237.2" enable-background="new 0 0 201.2 237.2" xml:space="preserve">
<path d="M86.9,154.3c-3.7,3.6-8,4.5-12.1,2.6c-8.1-3.8-8.1-11.8-9-20.1c-2.3,0.7-9.7,3-11.3,3.5c-15.3,4.3-25.8-5-22.7-20.6
	c0.6-3.1,2.9-6.9,5.5-8.5c15.1-9.2,31.4-14.5,49.3-12.6c4.1,0.4,8,3,12,4.5c2.9,1.1,5.8,2.6,8.8,2.8c1.7,0.1,4.5-1.7,5.2-3.3
	c2.3-5.8,6.5-9.6,12.1-11.1c9.1-2.4,18.7-3.2,27.9-5.4c9-2.2,10.3,8.4,16,8.8c5.7,0.3,8-26.7,6.7-43.7c-0.1-3.6-1.7-5.5-5.3-6.6
	c-16.4-5.1-32.9-9.6-50.1-11c-8.3-0.7-14.5,1.6-19.6,8.9c-6.4,9.3-11.5,33.4-47.8,41.6C28.1,89.6,0,77.5,0,77.5s32.3-5.7,41.7-31.2
	c6.1-16.6,25.8-30.7,45.7-40s71.8-7.3,88.1,0s28.3,15.3,25.3,27.2c-5,19.7-21.4,82.1-31.5,113.4c-11.5,35.5-42.2,82.8-82.4,89.5
	c-33.6,5.7-58.6-16.5-62.4-45.8c-1.7-16,7.7-32.1,7.7-32.1c0.3,11.9,7.5,80.6,61.7,57.1c29-12.6,58-47.4,68.3-80.5
	c3.4-10.9,9.5-31.2,1.9-30.8c-5.6,0.3-6.7,6.4-11.1,10c-8.1,6.6-20.1,8.2-30,6.6c-2.9-0.5-5.8-2.5-8.1-4.4c-8.1-6.5-15.9-5.6-21.7,3
	c-4.3,6.4-8.3,12.9-12.2,19.5c-4.5,7.6-3.6,10.1,4.1,14.2C85.6,153.3,86.1,153.7,86.9,154.3z"/>
<path d="M53.8,168.8c3.6,0.5,41.4-0.2,58.5-4.9c2.2-0.2-10.4,15.1-28.7,16.9S53.6,169.2,53.8,168.8z"/>
<path d="M65.1,186.9c10,2.7,16.3,4.3,30.7,0.7c0.4-0.1-10.8,13-19.3,12S67.7,190.4,65.1,186.9z"/>
</svg>
