<?xml version="1.0" encoding="utf-8"?>
<!-- Generator: Adobe Illustrator 18.0.0, SVG Export Plug-In . SVG Version: 6.00 Build 0)  -->
<!DOCTYPE svg PUBLIC "-//W3C//DTD SVG 1.0//EN" "http://www.w3.org/TR/2001/REC-SVG-20010904/DTD/svg10.dtd">
<svg version="1.0" id="Layer_1" xmlns="http://www.w3.org/2000/svg" xmlns:xlink="http://www.w3.org/1999/xlink" x="0px" y="0px"
	 viewBox="0 0 59.8 19.2" enable-background="new 0 0 59.8 19.2" xml:space="preserve">
<circle fill="#F15A4C" cx="9.6" cy="9.6" r="9.6"/>
<g>
	<path fill="#FFFFFF" d="M9.6,2.5c0.8,0.8,1.4,1.6,1.7,2.5c0.3,0.8,0.5,1.8,0.5,3c0,0.5,0,1.1-0.1,1.8l1.8,1.9c0,0.1,0.1,0.1,0,0.2
		l-0.8,3c0,0,0,0.1-0.1,0.1c0,0-0.1,0.1-0.2,0.1l-0.6,0c-0.1,0-0.2,0-0.2-0.1l-0.9-1.8H8l-0.9,1.8c0,0,0,0,0,0C7,15,7,15,6.9,15H6.3
		c-0.1,0-0.2-0.1-0.2-0.2l-0.8-3c0-0.1,0-0.1,0-0.2l1.8-1.9C7,9,7,8.4,7,7.9c0-1.2,0.2-2.2,0.5-3c0.3-0.8,0.9-1.6,1.8-2.5
		c0,0,0.1-0.1,0.2-0.1C9.5,2.4,9.5,2.4,9.6,2.5z M10.1,5.4c0-0.2-0.1-0.3-0.2-0.5C9.7,4.8,9.6,4.8,9.4,4.8C9.2,4.8,9.1,4.8,8.9,5
		C8.8,5.1,8.7,5.2,8.7,5.4c0,0.2,0.1,0.3,0.2,0.5C9.1,6,9.2,6.1,9.4,6.1c0.2,0,0.3-0.1,0.5-0.2C10,5.8,10.1,5.6,10.1,5.4z"/>
</g>
<path fill="#F15A4C" d="M26.6,8.4c-0.3-0.5-0.5-0.9-0.8-1.4c-0.2-0.5-0.5-0.9-0.7-1.4c-0.1,0-0.1,0-0.2,0c-0.1,0-0.1,0-0.2,0h-1.1
	v2.8h-2V0h3.2c0.9,0,1.7,0.2,2.4,0.7c0.7,0.4,1,1.1,1,2.1c0,0.5-0.1,1-0.4,1.3C27.6,4.5,27.4,4.8,27,5c0.3,0.6,0.6,1.1,1,1.7
	c0.3,0.6,0.6,1.1,1,1.7H26.6z M24.8,1.6h-1.1V4h1.2c0.4,0,0.7-0.1,1-0.3c0.3-0.2,0.4-0.5,0.4-0.9c0-0.4-0.1-0.7-0.4-0.9
	C25.5,1.7,25.2,1.6,24.8,1.6z"/>
<path fill="#F15A4C" d="M31.9,2.2c1,0,1.7,0.3,2.1,0.9c0.5,0.6,0.7,1.3,0.7,2.2V6h-3.8c0.1,0.3,0.2,0.5,0.5,0.6
	c0.2,0.1,0.5,0.2,0.9,0.2c0.3,0,0.5,0,0.8-0.1c0.3-0.1,0.5-0.1,0.8-0.3l0.6,1.4c-0.3,0.2-0.7,0.4-1.2,0.5c-0.5,0.1-0.8,0.1-1.1,0.1
	c-1,0-1.8-0.3-2.4-0.8c-0.6-0.5-0.9-1.3-0.9-2.3c0-1,0.3-1.8,0.9-2.3C30.2,2.5,31,2.2,31.9,2.2z M31.8,3.9c-0.2,0-0.4,0.1-0.6,0.2
	c-0.2,0.2-0.3,0.4-0.3,0.7h1.9c0-0.2-0.1-0.4-0.3-0.6C32.3,3.9,32.1,3.9,31.8,3.9z"/>
<path fill="#F15A4C" d="M37.9,2.2c0.8,0,1.4,0.2,1.8,0.7c0.5,0.4,0.7,1,0.7,1.7v3.8h-0.9l-0.4-0.5c-0.2,0.2-0.4,0.3-0.7,0.4
	c-0.3,0.1-0.6,0.2-0.9,0.2c-0.7,0-1.3-0.2-1.7-0.6c-0.4-0.4-0.5-0.9-0.5-1.5c0-0.6,0.2-1.1,0.6-1.4c0.4-0.3,1-0.5,1.7-0.5h0.9
	c0-0.2-0.1-0.4-0.3-0.5s-0.3-0.2-0.6-0.2c-0.2,0-0.5,0-0.8,0.1S36.2,4.2,36,4.3l-0.5-1.5c0.3-0.1,0.7-0.3,1.1-0.4
	C37.1,2.3,37.5,2.2,37.9,2.2z M37.4,6.9c0.2,0,0.3,0,0.5-0.1c0.2-0.1,0.3-0.2,0.5-0.3V5.9h-0.9c-0.2,0-0.3,0.1-0.5,0.2
	c-0.1,0.1-0.2,0.2-0.2,0.4c0,0.1,0.1,0.2,0.2,0.3C37.2,6.9,37.3,6.9,37.4,6.9z"/>
<path fill="#F15A4C" d="M44.7,3.9c-0.4,0-0.7,0.1-0.9,0.4c-0.2,0.3-0.4,0.6-0.4,1.1c0,0.5,0.1,0.8,0.4,1.1c0.2,0.3,0.5,0.4,0.9,0.4
	c0.2,0,0.4,0,0.6-0.1c0.2-0.1,0.4-0.1,0.7-0.3l0.6,1.4c-0.3,0.3-0.7,0.4-1.1,0.5c-0.4,0.1-0.7,0.1-1,0.1c-1,0-1.7-0.3-2.3-0.8
	c-0.6-0.6-0.9-1.3-0.9-2.3c0-1,0.3-1.8,0.9-2.3c0.6-0.6,1.4-0.9,2.3-0.9c0.2,0,0.6,0,1,0.1c0.4,0.1,0.7,0.2,1.1,0.5L46,4.2
	C45.7,4.1,45.5,4,45.3,4C45.1,3.9,44.9,3.9,44.7,3.9z"/>
<path fill="#F15A4C" d="M50.7,8.6c-0.7,0-1.4-0.2-1.9-0.6C48.3,7.6,48,7,48,6.2V4.2h-0.9V2.6H48V1l2-0.3v1.8h1.3l0.3,1.6H50V6
	c0,0.3,0.1,0.5,0.2,0.7c0.1,0.2,0.4,0.2,0.6,0.2c0.1,0,0.2,0,0.4-0.1c0.1,0,0.3-0.1,0.4-0.2l0.6,1.4c-0.1,0.1-0.4,0.2-0.7,0.3
	C51.3,8.5,51,8.6,50.7,8.6z"/>
<path fill="#F15A4C" d="M26.6,19.1c-0.3-0.5-0.5-0.9-0.8-1.4c-0.2-0.5-0.5-0.9-0.7-1.4c-0.1,0-0.1,0-0.2,0c-0.1,0-0.1,0-0.2,0h-1.1
	v2.8h-2v-8.4h3.2c0.9,0,1.7,0.2,2.4,0.7c0.7,0.4,1,1.1,1,2.1c0,0.5-0.1,1-0.4,1.3c-0.2,0.4-0.5,0.7-0.9,0.9c0.3,0.6,0.6,1.1,1,1.7
	c0.3,0.6,0.6,1.1,1,1.7H26.6z M24.8,12.3h-1.1v2.3h1.2c0.4,0,0.7-0.1,1-0.3c0.3-0.2,0.4-0.5,0.4-0.9c0-0.4-0.1-0.7-0.4-0.9
	C25.5,12.4,25.2,12.3,24.8,12.3z"/>
<path fill="#F15A4C" d="M32.2,12.9c1,0,1.8,0.3,2.4,0.8c0.6,0.6,0.9,1.4,0.9,2.4c0,1-0.3,1.7-1,2.3c-0.6,0.5-1.4,0.8-2.4,0.8
	c-1,0-1.7-0.3-2.3-0.8C29.3,17.9,29,17.1,29,16c0-1,0.3-1.8,0.9-2.3C30.5,13.2,31.3,12.9,32.2,12.9z M32.2,17.5
	c0.4,0,0.7-0.1,0.9-0.4c0.2-0.2,0.3-0.6,0.3-1.1c0-0.5-0.1-0.8-0.3-1.1c-0.2-0.3-0.5-0.4-0.9-0.4c-0.4,0-0.7,0.1-0.9,0.4
	c-0.2,0.3-0.3,0.6-0.3,1.1c0,0.5,0.1,0.8,0.3,1.1C31.5,17.4,31.8,17.5,32.2,17.5z"/>
<path fill="#F15A4C" d="M39.6,14.6c-0.4,0-0.7,0.1-0.9,0.4c-0.2,0.3-0.4,0.6-0.4,1.1c0,0.5,0.1,0.8,0.4,1.1c0.2,0.3,0.5,0.4,0.9,0.4
	c0.2,0,0.4,0,0.6-0.1c0.2-0.1,0.4-0.1,0.7-0.3l0.6,1.4c-0.3,0.3-0.7,0.4-1.1,0.5s-0.7,0.1-1,0.1c-1,0-1.7-0.3-2.3-0.8
	c-0.6-0.6-0.9-1.3-0.9-2.3c0-1,0.3-1.8,0.9-2.3c0.6-0.6,1.4-0.9,2.3-0.9c0.2,0,0.6,0,1,0.1c0.4,0.1,0.7,0.2,1.1,0.5l-0.6,1.4
	c-0.3-0.1-0.5-0.2-0.7-0.3C40,14.6,39.8,14.6,39.6,14.6z"/>
<path fill="#F15A4C" d="M44.3,10.4V15c0.4-0.3,0.8-0.7,1.2-1c0.4-0.3,0.8-0.7,1.2-1c0.2,0.2,0.4,0.5,0.6,0.7
	c0.2,0.2,0.4,0.5,0.6,0.7l-1.7,1.3l2.1,3.4h-2.2l-1.3-2.3c-0.1,0.1-0.1,0.1-0.2,0.2c-0.1,0.1-0.2,0.1-0.2,0.2v1.9h-2v-8.6L44.3,10.4
	z"/>
<path fill="#F15A4C" d="M51.4,12.9c1,0,1.7,0.3,2.1,0.9c0.5,0.6,0.7,1.3,0.7,2.2v0.7h-3.8c0.1,0.3,0.2,0.5,0.5,0.6s0.5,0.2,0.9,0.2
	c0.3,0,0.5,0,0.8-0.1c0.3-0.1,0.5-0.1,0.8-0.3l0.6,1.4c-0.3,0.2-0.7,0.4-1.2,0.5c-0.5,0.1-0.8,0.1-1.1,0.1c-1,0-1.8-0.3-2.4-0.8
	c-0.6-0.5-0.9-1.3-0.9-2.3c0-1,0.3-1.8,0.9-2.3C49.7,13.2,50.5,12.9,51.4,12.9z M51.3,14.5c-0.2,0-0.4,0.1-0.6,0.2
	c-0.2,0.2-0.3,0.4-0.3,0.7h1.9c0-0.2-0.1-0.4-0.3-0.6S51.6,14.5,51.3,14.5z"/>
<path fill="#F15A4C" d="M58.3,19.2c-0.7,0-1.4-0.2-1.9-0.6c-0.5-0.4-0.8-1-0.8-1.7v-2.1h-0.9v-1.6h0.9v-1.6l2-0.3v1.8h1.3l0.3,1.6
	h-1.6v1.8c0,0.3,0.1,0.5,0.2,0.7c0.1,0.2,0.4,0.2,0.6,0.2c0.1,0,0.2,0,0.4-0.1s0.3-0.1,0.4-0.2l0.6,1.4c-0.1,0.1-0.4,0.2-0.7,0.3
	C58.9,19.2,58.6,19.2,58.3,19.2z"/>
<path fill="#F15A4C" d="M32.2,12.9c1,0,1.8,0.3,2.4,0.8c0.6,0.6,0.9,1.4,0.9,2.4c0,1-0.3,1.7-1,2.3c-0.6,0.5-1.4,0.8-2.4,0.8
	c-1,0-1.7-0.3-2.3-0.8c-0.6-0.5-0.9-1.3-0.9-2.4c0-1,0.3-1.8,0.9-2.3C30.5,13.2,31.3,12.9,32.2,12.9z M32.2,17.5
	c0.4,0,0.7-0.1,0.9-0.4c0.2-0.2,0.3-0.6,0.3-1.1c0-0.5-0.1-0.8-0.3-1.1c-0.2-0.3-0.5-0.4-0.9-0.4c-0.4,0-0.7,0.1-0.9,0.4
	C31.1,15.2,31,15.6,31,16c0,0.5,0.1,0.8,0.3,1.1C31.5,17.4,31.8,17.5,32.2,17.5z"/>
<path fill="#F15A4C" d="M39.5,14.6c-0.4,0-0.7,0.1-0.9,0.4c-0.2,0.3-0.4,0.6-0.4,1.1c0,0.5,0.1,0.8,0.4,1.1c0.2,0.3,0.5,0.4,0.9,0.4
	c0.2,0,0.4,0,0.6-0.1c0.2-0.1,0.4-0.1,0.7-0.3l0.6,1.4c-0.3,0.3-0.7,0.4-1.1,0.5c-0.4,0.1-0.7,0.1-1,0.1c-1,0-1.7-0.3-2.3-0.8
	c-0.6-0.6-0.9-1.3-0.9-2.3c0-1,0.3-1.8,0.9-2.3c0.6-0.6,1.4-0.9,2.3-0.9c0.2,0,0.6,0,1,0.1c0.4,0.1,0.7,0.2,1.1,0.5l-0.6,1.4
	c-0.3-0.1-0.5-0.2-0.7-0.3C40,14.6,39.8,14.6,39.5,14.6z"/>
<path fill="#F15A4C" d="M44.3,10.4V15c0.4-0.3,0.8-0.7,1.2-1c0.4-0.3,0.8-0.7,1.2-1c0.2,0.2,0.4,0.5,0.6,0.7
	c0.2,0.2,0.4,0.5,0.6,0.7l-1.7,1.3l2.1,3.4H46l-1.3-2.3c-0.1,0.1-0.1,0.1-0.2,0.2c-0.1,0.1-0.2,0.1-0.2,0.2v1.9h-2v-8.6L44.3,10.4z"
	/>
<path fill="#F15A4C" d="M51.4,12.9c1,0,1.7,0.3,2.1,0.9c0.5,0.6,0.7,1.3,0.7,2.2v0.7h-3.8c0.1,0.3,0.2,0.5,0.5,0.6
	c0.2,0.1,0.5,0.2,0.9,0.2c0.3,0,0.5,0,0.8-0.1c0.3-0.1,0.5-0.1,0.8-0.3l0.6,1.4c-0.3,0.2-0.7,0.4-1.2,0.5c-0.5,0.1-0.8,0.1-1.1,0.1
	c-1,0-1.8-0.3-2.4-0.8c-0.6-0.5-0.9-1.3-0.9-2.3c0-1,0.3-1.8,0.9-2.3C49.7,13.2,50.4,12.9,51.4,12.9z M51.3,14.5
	c-0.2,0-0.4,0.1-0.6,0.2c-0.2,0.2-0.3,0.4-0.3,0.7h1.9c0-0.2-0.1-0.4-0.3-0.6S51.6,14.5,51.3,14.5z"/>
<path fill="#F15A4C" d="M58.3,19.2c-0.7,0-1.4-0.2-1.9-0.6c-0.5-0.4-0.8-1-0.8-1.7v-2.1h-0.9v-1.6h0.9v-1.6l2-0.3v1.8h1.3l0.3,1.6
	h-1.6v1.8c0,0.3,0.1,0.5,0.2,0.7c0.1,0.2,0.4,0.2,0.6,0.2c0.1,0,0.2,0,0.4-0.1s0.3-0.1,0.4-0.2l0.6,1.4c-0.1,0.1-0.4,0.2-0.7,0.3
	C58.8,19.2,58.5,19.2,58.3,19.2z"/>
</svg>
