<?xml version="1.0" encoding="utf-8"?>
<!-- Generator: Adobe Illustrator 18.0.0, SVG Export Plug-In . SVG Version: 6.00 Build 0)  -->
<!DOCTYPE svg PUBLIC "-//W3C//DTD SVG 1.1//EN" "http://www.w3.org/Graphics/SVG/1.1/DTD/svg11.dtd">
<svg version="1.1" id="Layer_1" xmlns="http://www.w3.org/2000/svg" xmlns:xlink="http://www.w3.org/1999/xlink" x="0px" y="0px"
	 viewBox="0 194.5 411 411" enable-background="new 0 194.5 411 411" xml:space="preserve">
<circle fill="#F15A4C" cx="205.5" cy="400" r="205.5"/>
<g>
	<path fill="#FFFFFF" d="M205.5,248c17.1,17.1,30,34.2,36.4,53.5c6.4,17.1,10.7,38.5,10.7,64.2c0,10.7,0,23.5-2.1,38.5l38.5,40.7
		c0,2.1,2.1,2.1,0,4.3l-17.1,64.2c0,0,0,2.1-2.1,2.1c0,0-2.1,2.1-4.3,2.1h-12.8c-2.1,0-4.3,0-4.3-2.1L229,477.1h-57.8L152,515.6l0,0
		c-2.1,0-2.1,0-4.3,0h-12.8c-2.1,0-4.3-2.1-4.3-4.3l-17.1-64.2c0-2.1,0-2.1,0-4.3l38.5-40.7c-2.1-15-2.1-27.8-2.1-38.5
		c0-25.7,4.3-47.1,10.7-64.2c6.4-17.1,19.3-34.2,38.5-53.5c0,0,2.1-2.1,4.3-2.1C203.3,245.9,203.3,245.9,205.5,248z M216.2,310.1
		c0-4.3-2.1-6.4-4.3-10.7c-4.3-2.1-6.4-2.1-10.7-2.1s-6.4,0-10.7,4.3c-2.1,2.1-4.3,4.3-4.3,8.6c0,4.3,2.1,6.4,4.3,10.7
		c4.3,2.1,6.4,4.3,10.7,4.3c4.3,0,6.4-2.1,10.7-4.3C214,318.7,216.2,314.4,216.2,310.1z"/>
</g>
</svg>
