<?xml version="1.0" encoding="utf-8"?>
<!-- Generator: Adobe Illustrator 18.0.0, SVG Export Plug-In . SVG Version: 6.00 Build 0)  -->
<!DOCTYPE svg PUBLIC "-//W3C//DTD SVG 1.0//EN" "http://www.w3.org/TR/2001/REC-SVG-20010904/DTD/svg10.dtd">
<svg version="1.0" xmlns="http://www.w3.org/2000/svg" xmlns:xlink="http://www.w3.org/1999/xlink" x="0px" y="0px"
	 viewBox="0 0 82.2 46" enable-background="new 0 0 82.2 46" xml:space="preserve">
<g id="Layer_1">
	<polyline opacity="0.23" fill="#FFFFFF" points="73,46 73,36 82.2,26.9 	"/>
	<polygon opacity="0.23" fill="#FFFFFF" points="64,46 73,28 64.4,27 54.3,46 	"/>
	<polygon opacity="0.23" fill="#FFFFFF" points="46,27 55,27 45.5,36.5 	"/>
	<polygon opacity="0.23" fill="#FFFFFF" points="36.6,28 28,45.5 37,46 46,27 	"/>
	<polygon opacity="0.23" fill="#FFFFFF" points="12.7,35.5 13,45 22,45 30,35.8 30,28 22,28 	"/>
	<polygon opacity="0.23" fill="#FFFFFF" points="0.8,46 9.7,35.5 18.8,27 9,27 1,34.8 	"/>
	<polygon opacity="0.23" fill="#FFFFFF" points="75,0 66,19 65.5,8.9 	"/>
	<polygon opacity="0.23" fill="#FFFFFF" points="68,1 58.8,19 49.5,18.5 59,0.5 	"/>
	<polyline opacity="0.23" fill="#FFFFFF" points="46.2,0.8 37,9 37,19 28,19 28,9 38,1 46,1 46,19 	"/>
	<polygon opacity="0.23" fill="#FFFFFF" points="23,17.9 13,9 13,19 22,19 	"/>
	<polyline opacity="0.23" fill="#FFFFFF" points="13,10 23,10 32,1 23,1 13.5,9 	"/>
	<polygon opacity="0.23" fill="#FFFFFF" points="1,18 9.5,9 19,0.5 10,1 0.5,9.4 	"/>
	<path opacity="0.23" fill="#8DDCFF" d="M66,1"/>
</g>
<g id="Layer_2">
	<polygon fill="#FFFFFF" points="1,18 0,18 0,0 1,0 1,7.9 9.8,0 19,0 19,1 10.2,1 1,9.2 	"/>
	<path fill="#FFFFFF" d="M23,19H13V8.8L22.8,0h10.4l-10,10H14v8h9V19z M14.2,9h8.5l8-8h-7.6L14.2,9z"/>
	<path fill="#FFFFFF" d="M47,19h-1V2.1l-8,7.1V19H28V8.8L37.8,0H47v1l0.1,0.1L47,1.2V19z M29,18h8V8.8L45.7,1h-7.5L29,9.2V18z"/>
	<polygon fill="#FFFFFF" points="59,19 48.7,19 58.7,0 68,0 68,1 59.3,1 50.3,18 59,18 	"/>
	<polygon fill="#FFFFFF" points="64,46 53.7,46 63.7,27 73,27 73,28 64.3,28 55.3,45 64,45 	"/>
	<g>
		<polygon fill="#FFFFFF" points="66,19 65,19 65,8.8 73.5,0 75,0 66,9.2 		"/>
	</g>
	<g>
		<line fill="#FFFFFF" x1="65" y1="10" x2="75" y2="10"/>
		<rect x="65" y="9" fill="#FFFFFF" width="10" height="1"/>
	</g>
	<polygon fill="#FFFFFF" points="1,46 0,46 0,27 1,27 1,34.8 9.3,27 19,27 19,28 9.7,28 1,36.2 	"/>
	<path fill="#FFFFFF" d="M22.2,46H12V35.8l9.8-8.8H31v9.2L22.2,46z M13,45h8.8l8.2-9.2V28h-7.8L13,36.2V45z"/>
	<polygon fill="#FFFFFF" points="37,46 27.2,46 36.7,27 46,27 46,28 37.3,28 28.8,45 37,45 	"/>
	<polygon fill="#FFFFFF" points="45,37.2 45,27 46,27 46,34.8 54.3,27 55.7,27 	"/>
	<g>
		<line fill="#FFFFFF" x1="55" y1="37" x2="82" y2="37"/>
		<rect x="55" y="36" fill="#FFFFFF" width="27" height="1"/>
	</g>
	<polygon fill="#FFFFFF" points="73,46 72,46 72,35.8 80.8,27 82.2,27 73,36.2 	"/>
	<polygon fill="#FFFFFF" points="54.3,46 46,37.3 46,46 45,46 45,34.7 55.4,45.7 	"/>
</g>
</svg>
