<?xml version="1.0" encoding="utf-8"?>
<!-- Generator: Adobe Illustrator 18.0.0, SVG Export Plug-In . SVG Version: 6.00 Build 0)  -->
<!DOCTYPE svg PUBLIC "-//W3C//DTD SVG 1.1//EN" "http://www.w3.org/Graphics/SVG/1.1/DTD/svg11.dtd">
<svg version="1.1" id="Layer_1" xmlns="http://www.w3.org/2000/svg" xmlns:xlink="http://www.w3.org/1999/xlink" x="0px" y="0px"
	 viewBox="0 0 1024 768" enable-background="new 0 0 1024 768" xml:space="preserve">
<path fill="#FFFFFF" d="M87.1,383.2c0,64.1,62.6,124.1,161.4,157.8c-19.7,99.3-3.5,179.3,50.5,210.5c55.6,32,138.4,9.9,217-58.8
	c76.6,65.9,154,91.9,208.1,60.6c55.5-32.1,72.4-117.6,52.1-220c102.9-34,160.4-85.1,160.4-150.1c0-62.7-62.8-116.9-160.2-150.4
	c21.8-106.6,3.3-184.7-53-217.2c-54.3-31.3-132.6-4-210.4,63.6C432.3,7.4,354.7-14.6,298.5,18c-54.2,31.4-69.7,112.9-49.9,214
	C153.1,265.3,87.1,320.7,87.1,383.2z"/>
<path d="M755.8,266c-8-2.8-16.1-5.3-24.3-7.7c1.4-5.5,2.6-11,3.8-16.5c18.4-89.2,6.4-161.2-34.7-184.8
	c-39.4-22.7-103.7,1-168.7,57.5c-6.4,5.6-12.7,11.4-18.8,17.2c-4.1-3.9-8.3-7.8-12.5-11.6c-68.1-60.5-136.4-86-177.4-62.3
	c-39.3,22.8-51,90.3-34.4,174.9c1.6,8.4,3.5,16.7,5.6,25c-9.7,2.7-19,5.7-27.9,8.8c-79.9,27.9-130.9,71.5-130.9,116.8
	c0,46.8,54.7,93.7,138,122.1c6.7,2.3,13.5,4.4,20.4,6.4c-2.2,8.9-4.2,17.9-5.9,26.9c-15.8,83.1-3.5,149.1,35.8,171.7
	c40.5,23.4,108.5-0.6,174.7-58.5c5.2-4.6,10.5-9.4,15.7-14.5c6.6,6.4,13.4,12.6,20.4,18.6c64.1,55.2,127.4,77.4,166.6,54.8
	c40.5-23.4,53.6-94.3,36.6-180.6c-1.3-6.6-2.8-13.3-4.5-20.2c4.8-1.4,9.5-2.9,14-4.4c86.5-28.7,142.8-75,142.8-122.4
	C890,338,837.3,294.1,755.8,266L755.8,266z"/>
<path fill="#FFFFFF" d="M737.1,475.3c-4.1,1.4-8.3,2.7-12.7,4c-9.5-30.2-22.4-62.4-38.2-95.6c15-32.4,27.4-64.1,36.7-94.2
	c7.7,2.2,15.2,4.6,22.4,7.1c69.8,24,112.4,59.6,112.4,87C857.7,412.7,811.7,450.5,737.1,475.3L737.1,475.3z M706.1,536.6
	c7.6,38.1,8.6,72.6,3.6,99.6c-4.5,24.2-13.5,40.4-24.7,46.8c-23.8,13.8-74.6-4.1-129.5-51.3c-6.3-5.4-12.6-11.2-19-17.3
	c21.3-23.3,42.5-50.3,63.3-80.3c36.5-3.2,71-8.5,102.2-15.8C703.5,524.6,704.9,530.7,706.1,536.6L706.1,536.6z M392.7,680.7
	c-23.2,8.2-41.7,8.4-52.9,2C316,669,306.1,616,319.6,544.9c1.6-8.4,3.5-16.8,5.5-25.1c30.9,6.8,65.1,11.8,101.7,14.7
	c20.9,29.4,42.7,56.4,64.8,80c-4.7,4.5-9.5,9-14.4,13.2C447.9,653.4,418.5,671.6,392.7,680.7L392.7,680.7z M283.9,475.1
	c-36.8-12.6-67.2-28.9-88-46.7c-18.7-16-28.2-31.9-28.2-44.9c0-27.5,41-62.5,109.3-86.3c8.6-3,17.2-5.7,26-8.2
	c9.4,30.7,21.8,62.8,36.8,95.3c-15.1,33-27.7,65.6-37.2,96.6C296.2,479.1,290,477.2,283.9,475.1z M320.3,226.7
	c-14.2-72.5-4.8-127.1,18.9-140.8c25.2-14.6,81.1,6.2,139.9,58.5c3.8,3.4,7.5,6.8,11.3,10.5c-21.9,23.5-43.6,50.3-64.3,79.5
	c-35.5,3.3-69.4,8.6-100.7,15.7C323.6,242.3,321.9,234.5,320.3,226.7L320.3,226.7z M645.8,307.1c-7.4-12.8-15-25.3-22.9-37.7
	c24.1,3,47.2,7.1,68.8,12c-6.5,20.8-14.6,42.6-24.1,65C660.5,333.1,653.3,320.1,645.8,307.1L645.8,307.1z M513.1,177.8
	c14.9,16.1,29.7,34.1,44.4,53.6c-29.7-1.4-59.5-1.4-89.2,0C483,212.1,498,194.1,513.1,177.8L513.1,177.8z M379.5,307.3
	c-7.4,12.8-14.5,25.9-21.3,39c-9.4-22.3-17.4-44.1-24-65.3c21.5-4.8,44.5-8.8,68.4-11.7C394.6,281.8,386.9,294.5,379.5,307.3z
	 M403.3,499.9c-24.7-2.8-48-6.5-69.6-11.2c6.7-21.5,14.9-43.9,24.4-66.6c6.8,13.2,14,26.2,21.4,39
	C387.2,474.3,395.1,487.2,403.3,499.9z M514,591.4c-15.3-16.5-30.5-34.7-45.4-54.3c14.4,0.6,29.2,0.9,44.1,0.9
	c15.4,0,30.6-0.3,45.5-1C543.6,556.9,528.7,575.1,514,591.4z M667.8,421c10.1,23,18.6,45.2,25.3,66.4c-21.9,5-45.5,9-70.4,12
	c8-12.7,15.7-25.4,23.1-38.4C653.5,447.8,660.8,434.5,667.8,421L667.8,421z M618,444.9c-11.4,19.9-23.5,39.3-36.2,58.4
	c-22.4,1.6-45.5,2.4-69.1,2.4c-23.5,0-46.3-0.7-68.3-2.2c-13-19-25.3-38.5-36.9-58.5c-11.5-19.8-22.2-40.1-32.2-60.8
	c9.9-20.7,20.6-41,32.1-60.8l0,0c11.5-19.9,23.7-39.3,36.6-58.2c22.4-1.7,45.4-2.6,68.7-2.6c23.4,0,46.4,0.9,68.8,2.6
	c12.8,18.9,24.9,38.3,36.3,58c11.5,19.8,22.3,40,32.5,60.5C640.4,404.5,629.5,424.9,618,444.9L618,444.9z M684.5,84.9
	c25.3,14.6,35.1,73.3,19.2,150.4c-1,5-2.2,10-3.4,15c-31.3-7.2-65.3-12.6-100.9-15.9c-20.7-29.5-42.2-56.4-63.8-79.6
	c5.6-5.4,11.4-10.7,17.3-15.9C608.7,90.4,660.8,71.3,684.5,84.9L684.5,84.9z"/>
<path d="M512.7,316.1c37.2,0,67.4,30.2,67.4,67.4s-30.2,67.4-67.4,67.4s-67.4-30.2-67.4-67.4S475.5,316.1,512.7,316.1"/>
</svg>
